<svg height="1000" width="1000.0" xmlns="http://www.w3.org/2000/svg"><path d="m500 48c-249 0-452 203-452 452 0 249 203 452 452 452 249 0 452-203 452-452 0-249-203-452-452-452z m0 49c223 0 403 180 403 403 0 223-180 403-403 403-223 0-403-180-403-403 0-223 180-403 403-403z m-4 189c-84 0-164 55-194 133-33 76-15 170 43 229 56 60 149 82 226 54 81-28 141-108 143-194 5-83-46-166-121-201-29-14-61-21-93-21-1 0-3 0-4 0z m8 39c76 0 148 57 166 131 20 73-14 156-79 194-67 42-160 31-215-26-58-56-68-152-24-219 32-49 89-81 148-80 1 0 2 0 4 0z m51 49c-19 36-39 71-58 107-18 2-23 29-6 36 11 8 20-5 30-4l89 0 0-25-89 0c18-34 37-68 56-102-7-4-14-8-22-12z" /></svg>