<svg height="1000" width="1000.0" xmlns="http://www.w3.org/2000/svg"><path d="m215 105c-107 0-195 87-195 194l0 402c0 107 88 194 195 194l570 0c108 0 195-87 195-194l0-402c0-107-87-194-195-194l-570 0z m0 60l570 0c75 0 135 59 135 134l0 402c0 75-60 134-135 134l-570 0c-75 0-135-59-135-134l0-402c0-75 60-134 135-134z m-22 67c-1 0-1 0-1 0-7 0-12 6-12 12l0 357c0 7 6 13 13 13l500 0c6 0 12-6 12-13l0-357c0-6-5-12-12-12 0 0 0 0 0 0l-248 0-176 0-76 0z m47 25l205 0 200 0-202 116-203-116z m-35 9l231 132c4 2 9 2 13 0l231-132 0 323-475 0 0-323z" /></svg>