<svg height="1000" width="1000.0" xmlns="http://www.w3.org/2000/svg"><path d="m215 105c-107 0-195 87-195 194l0 402c0 107 88 194 195 194l570 0c108 0 195-87 195-194l0-402c0-107-87-194-195-194l-570 0z m0 60l570 0c75 0 135 59 135 134l0 402c0 75-60 134-135 134l-570 0c-75 0-135-59-135-134l0-402c0-75 60-134 135-134z m168 69l0 0c-7 0-14 2-20 6l0 0 0 0c-31 19-138 90-161 105l0 0 0 0c-21 14-35 34-43 59l0 0-1 0c-8 26-7 54-7 78l0 0 0 0c0 17 1 33 6 52 0 0 0 0 0 0 6 27 20 48 38 63 19 15 43 22 70 22 96 0 192 0 288 0l0 0 0 0c10 0 19-3 26-9 6-7 9-16 9-26l0 0c0-11-3-21-10-27-2-2-4-3-6-4l23 0c9 0 17-1 25-5 7-5 12-12 14-21l0 0c3-13 1-26-7-34-2-2-5-4-8-6 2 0 8 0 9 0 12 0 22-3 29-11 7-8 9-18 9-29 0-11-3-21-10-27-8-7-17-9-28-9l0 0 0 0c-9 0-18 0-29 0 2-2 5-4 7-6 7-8 10-18 10-29l0 0 0 0c0-11-3-21-10-29-7-7-17-10-28-10-17 0-37 0-59 0-27 0-56 0-82 0-24 0-46 0-62 0-4 0-6 0-9 0 4-4 7-7 11-11 11-10 21-20 27-26 12-15 14-36 3-52l0 0c-5-8-13-13-21-14-1 0-2 0-3 0z m-1 20c1 0 1 0 1 0 3 0 5 1 8 6l0 0 0 0c4 6 4 18-3 27l0 0 0 0c-3 3-14 14-24 24-11 11-21 20-26 26-4 5-3 9-2 12 2 3 3 6 9 7 1 1 2 1 2 1 1 0 1 0 2 0 2 0 4 0 6 0 5 0 12 0 20 0 16 0 38 0 62 0 48 0 105 0 141 0l0 0 0 0c7 0 11 1 14 4 2 3 4 8 4 15 0 8-2 12-4 15-3 3-7 4-14 4-45 0-151 1-151 1l-9 0 0 34 10 0c0 0 138 1 200 1 8 0 12 1 14 3 2 2 4 6 4 13 0 9-2 13-4 16-2 2-6 4-14 4-20 0-200 0-200 0l-10 0 0 35 10 0c0 0 117 0 168 0l0 0 0 0c9 0 14 2 17 5 2 2 4 6 2 15l0 0 0 0c-2 6-3 7-5 8-3 2-8 3-15 3l-177 0 0 10 0 26 10 0c0 0 88 0 125 0 7 1 11 2 12 3 2 1 3 4 3 11l0 0 0 0c0 8-2 11-3 13-2 1-5 3-12 3-96 0-192 0-288 0l0 0 0 0c-24 0-43-6-58-18-14-11-25-28-31-52l0 0 0 0c-4-17-5-30-5-48l0 0c0-24 0-50 6-71 8-21 19-37 36-48l0 0c23-16 131-87 161-105 3-2 5-3 7-3 1 0 1 0 1 0z" /></svg>