<svg height="1000" width="1000.0" xmlns="http://www.w3.org/2000/svg"><path d="m215 105c-107 0-195 87-195 194l0 402c0 107 88 194 195 194l570 0c108 0 195-87 195-194l0-402c0-107-87-194-195-194l-570 0z m0 60l570 0c75 0 135 59 135 134l0 402c0 75-60 134-135 134l-570 0c-75 0-135-59-135-134l0-402c0-75 60-134 135-134z m-36 72l0 190 0 9 0 25 0 156 165 0 25 0 314 0 0-190 0-190-504 0z m25 132l140 0 0 67-140 0 0-9 0-58z m165 0l289 0 0 58 0 9-289 0 0-67z m-165 92l140 0 0 131-140 0 0-131z m165 0l289 0 0 131-289 0 0-131z" /></svg>