<svg height="1000" width="1000.0" xmlns="http://www.w3.org/2000/svg"><path d="m500 48c-9 0-19 4-26 11l-415 415c-14 14-14 38 0 52l415 415c14 14 38 14 52 0l415-415c14-14 14-38 0-52l-415-415c-7-7-17-11-26-11z m0 62l390 390-390 390-390-390 390-390z m-146 217c0 0-4 1-4 1 0 0-4 3-4 3l-15 15c0 0-3 4-3 4 0 0-1 4-1 4 0 0 1 5 1 5 0 0 3 4 3 4l137 137-137 137 0 0c0 0-3 4-3 4 0 0-1 5-1 5 0 0 1 4 1 4 0 0 3 4 3 4l15 15c0 0 4 3 4 3 0 0 4 1 4 1 0 0 5-1 5-1 0 0 4-3 4-3l137-137 137 137c0 0 4 3 4 3 0 0 5 1 5 1 0 0 4-1 4-1 0 0 4-3 4-3l15-15c0 0 3-4 3-4 0 0 1-4 1-4 0 0-1-5-1-5 0 0-3-4-3-4l-137-137 137-137c0 0 3-4 3-4 0 0 1-5 1-5 0 0-1-4-1-4 0 0-3-4-3-4l-15-15c0 0-4-3-4-3 0 0-4-1-4-1 0 0-5 1-5 1 0 0-4 3-4 3l-137 137-137-137 0-1c0 0-4-2-4-2 0 0-5-1-5-1l0 0z" /></svg>