<svg height="1000" width="1000.0" xmlns="http://www.w3.org/2000/svg"><path d="m215 105c-107 0-195 87-195 194l0 402c0 107 88 194 195 194l570 0c108 0 195-87 195-194l0-402c0-107-87-194-195-194l-570 0z m0 60l570 0c75 0 135 59 135 134l0 402c0 75-60 134-135 134l-570 0c-75 0-135-59-135-134l0-402c0-75 60-134 135-134z m44 53l0 5 0 28c-6 2-12 4-18 6l0 0 0 0c-6 3-11 5-17 9l-23-24-38 38 23 24c-6 10-11 22-14 34l-33 0 0 54 34 0c1 6 3 12 5 17 3 6 6 12 9 17l-24 24 38 38 20-20 0 5 23 0c4 1 8 3 12 4 1 4 2 8 4 11l0 24 4 0-19 19 38 38 25-24c10 6 22 11 34 14l0 34 5 0c15 0 44 0 44 0l-5-5 10 0 0-5 0-25c6-1 12-3 18-5l0 0 0 0c6-3 11-6 16-9l25 24 38-38-25-24c7-11 12-22 14-34l33-1 0-53-33 0c-1-6-3-12-6-18-2-6-5-11-8-16l23-23-39-38-19 19 0-5-5 0-18 0c-3-2-7-3-11-4-1-4-2-8-4-12l0-22-6 0 20-19-39-38-23 23c-11-6-22-11-34-14l0-33-54 0z m10 10l34 0 0 31 4 1c13 3 26 8 38 15l4 3 21-22 24 24-19 19-34 0 0 15c-21-22-54-31-84-18-38 16-56 59-40 97l0 0 0 0c5 10 11 19 19 26l-15 0 0 35-20 20-24-24 23-23-2-3c-4-6-8-12-10-18l0 0 0 0c-3-7-5-14-6-20l-1-4-32 0 0-34 32 0 0-4c3-14 8-27 16-38l2-4-22-22 24-24 22 22 4-2c5-4 11-7 18-10l0 0c6-2 13-4 20-6l4-1 0-31z m17 72c22 0 43 11 55 30l0 2c-6 2-12 4-18 6l0 0 0 0c-6 3-11 5-16 9l-24-24-38 38 24 24c-7 10-12 22-14 34l-3 0c-11-7-20-17-25-30l0 0c-14-32 1-70 34-84 8-3 16-5 25-5z m65 9l34 0 0 31 4 1c2 0 3 1 5 1l0 0c5 1 9 3 14 4l0 0c4 2 7 4 11 6 0 0 0 0 0 0 1 0 2 0 2 1 0 0 0 0 0 0 1 0 2 1 3 1 0 0 0 0 0 0 0 1 1 1 2 1l0 1c0 0 1 0 1 0l4 3 0 0 2 1 0-4 19-19 25 24-22 22 2 3c4 6 7 12 10 18l0 0 0 0c3 7 5 13 6 20l1 4 31 0 0 34-31 0-1 4c-2 13-8 26-15 38l-2 3 23 23-24 24-23-23-4 3c-5 3-12 7-18 9-7 3-13 5-20 6l-4 1 0 33c-5 0-21 0-34 0l0-32-4-1c-14-3-27-8-38-16l-4-2-23 23-24-24 19-19 7 0-3-4 0 0-2-3 0-1c-4-4-7-10-9-15 0-1-1-2-1-2l0 0 0 0 0 0c0-1 0-1-1-1l0 0c-1-5-3-9-4-14l0-1c-1-1-1-3-1-4l-1-4 0 0-4 0-14 0 0 0-14 0 0-34 32 0 0 0 6 0-6-3 0-1c3-14 8-27 16-38l2-4-22-22 24-24 22 22 4-2c5-4 11-7 18-10l0 0c6-2 13-4 20-6l1 0 3 5 0-6 0-31z m18 62c-1 0-2 0-2 0l0 0c0 0 0 0 0 0l0 0c-1 0-1 0-1 0 0 0 0 0 0 0l0 0c-1 0-2 0-3 0l0 0c0 0 0 0 0 0 0 0 0 0 0 0 0 0 0 0 0 0l0 0c-8 1-16 3-23 6l0 0c-26 11-43 34-46 60l0 0c0 0 0 0 0 0 0 0 0 0 0 0l0 0c0 1 0 1 0 2l0 0c0 0 0 0 0 0l0 0c0 2 0 4 0 6l0 0 0 0c0 0 0 0 0 0l0 0c0 1 0 3 0 5l0 0c0 0 0 0 0 0 0 0 0 0 0 0l0 0c0 2 0 4 0 5l0 0c0 0 0 0 0 0 0 0 0 1 0 1 0 0 0 0 0 0l0 0c1 0 1 1 1 2l0 0c0 0 0 0 0 0 0 0 0 0 0 0l0 0c0 1 0 2 0 3l0 0c0 0 0 0 0 0 0 0 0 0 0 0l0 0c1 1 1 2 1 3l0 0c0 0 0 0 0 0 0 0 0 0 0 0 0 0 0 0 0 0l0 0c0 0 0 1 1 2l0 0c0 0 0 0 0 0 0 0 0 0 0 0 0 0 0 0 0 0l0 0c0 2 1 4 1 5 0 0 0 0 0 0 1 1 1 1 1 1 0 0 0 0 0 1 0 0 0 1 1 1 0 0 0 0 0 0l0 0c0 1 0 2 1 2 0 0 0 0 0 0 0 1 0 1 0 1 0 0 0 0 0 0l0 0c1 2 1 3 2 5 0 0 0 0 0 0 0 0 0 0 0 0 0 0 0 0 0 0l0 0c19 32 59 47 94 32 38-16 56-60 40-97-6-17-18-29-33-37l0 0c0 0 0 0 0 0l0 0c-1 0-1-1-2-1l0 0c0 0 0 0 0 0l0 0c-1 0-2-1-2-1l0 0c0 0 0 0 0 0l0 0c-1 0-2-1-2-1l0 0c0 0-1 0-1 0l0 0c0 0-1-1-2-1l0 0c0 0 0 0 0 0 0 0 0 0 0 0l0 0c-1 0-1-1-2-1l0 0c0 0 0 0 0 0l0 0c-1 0-2 0-2 0l0-1c0 0 0 0-1 0l0 0c-1 0-3 0-4-1l0 0c0 0 0 0 0 0l0 0c-1 0-2 0-2 0l0 0c0 0 0 0 0 0 0 0-1 0-1 0 0 0 0 0 0 0l0 0c-1-1-1-1-2-1l0 0c0 0 0 0 0 0l0 0c-1 0-2 0-2 0l0 0c0 0-1 0-1 0l0 0c0 0-1 0-2-1l0 0c0 0 0 0 0 0l0 0c-1 0-2 0-2 0l0 0c-1 0-1 0-1 0l0 0c0 0-1 0-2 0l0 0c0 0 0 0 0 0l0 0c-1 0-2 0-2 0z m0 10c0 0 1 0 1 0l0 0c1 0 1 0 1 0l0 0c1 0 1 0 2 0l0 0c0 0 0 0 0 0l0 0c1 0 1 0 2 0l0 0c0 0 0 0 0 0l0 0c1 0 1 1 2 1l0 0c0 0 0 0 0 0l0 0c1 0 2 0 2 0l0 0c0 0 0 0 0 0l0 0c1 0 2 0 2 0l0 0c0 0 0 0 0 0 0 0 0 0 1 0 0 0 0 0 0 0l0 0c0 1 1 1 1 1l0 0c0 0 1 0 1 0l0 0c1 0 2 0 3 1l0 0c1 0 1 0 1 0l0 0c0 0 1 0 1 0l0 0c1 1 1 1 1 1l0 0c0 0 1 0 2 0l0 0c0 0 0 0 0 0 0 0 0 0 0 0l0 0c0 1 1 1 1 1l0 0c1 0 1 0 1 0l0 0c0 0 1 1 1 1l0 0c1 0 1 0 1 0l0 0c0 0 1 1 1 1l0 0c0 0 1 0 1 0l0 0c0 0 1 1 1 1l0 0c0 0 0 0 1 0l0 0c12 7 22 17 28 31 14 33-2 71-34 85l0 0c-31 12-66 0-82-28l0 0c0 0 0 0 0 0 0 0 0 0 0 0 0 0 0 0 0 0l0 0c-1-2-1-3-2-4 0 0 0 0 0 0 0 0 0-1 0-1 0 0 0 0 0 0-1 0-1-1-1-2l0 0c0 0 0 0-1-1 0 0 0 0 0 0 0 0 0 0 0 0 0 0 0 0 0 0 0-1 0-1 0-1 0 0 0 0 0 0-1-2-1-3-2-4l0 0c0 0 0 0 0 0 0-1 0-1 0-1 0 0 0 0 0 0l0 0c0 0 0-1 0-2l0 0c0 0 0 0 0 0 0 0 0 0 0 0 0 0 0 0 0 0l0 0c0-1-1-1-1-2l0 0c0 0 0 0 0 0 0 0 0 0 0 0l0 0c0-1 0-2 0-2l0 0c0 0 0 0 0 0 0-1 0-1 0-1l0 0c0 0-1-1-1-2l0 0c0 0 0 0 0 0 0 0 0 0 0 0 0 0 0 0 0 0l0 0c0-2 0-3 0-4l0 0c0 0 0 0 0 0 0-1 0-1 0-1l0 0c0-1 0-3 0-4l0 0c0 0 0 0 0 0 0 0 0 0 0 0l0 0c0-2 0-3 0-5l0 0c0 0 0 0 0 0l0 0c0-1 0-1 0-2l0 0c0 0 0 0 0 0 0 0 0 0 0 0l0 0c3-22 17-43 39-52 7-3 14-4 20-5l0 0c0 0 0 0 0 0 1 0 1 0 1 0l0 0 0 0c1 0 2 0 2 0l0 0c0 0 0 0 0 0 0 0 0 0 0 0 1 0 1 0 1 0l0 0c0 0 1 0 2 0z" /></svg>