<svg height="1000" width="1000.0" xmlns="http://www.w3.org/2000/svg"><path d="m500 48c-178-2-349 112-416 276-70 161-34 362 89 487 119 128 314 175 477 115 169-58 294-224 301-403 12-176-92-351-250-428-62-31-132-47-201-47z m0 49c175-3 342 123 388 293 47 159-17 344-155 439-143 105-354 97-489-18-136-109-185-309-115-468 60-147 212-248 371-246z m-205 247c0 104 0 208 0 312 137 0 273 0 410 0 0-104 0-208 0-312-137 0-273 0-410 0z m91 49c76 0 152 0 228 0-40 24-81 79-121 85-36-29-71-57-107-85z m270 28c0 62 0 124 0 186-104 0-208 0-312 0 0-62 0-124 0-186 52 42 104 83 156 125 52-42 104-83 156-125z" /></svg>