<svg height="1000" width="1000.0" xmlns="http://www.w3.org/2000/svg"><path d="m215 105c-107 0-195 87-195 194l0 402c0 107 88 194 195 194l570 0c108 0 195-87 195-194l0-402c0-107-87-194-195-194l-570 0z m0 60l570 0c75 0 135 59 135 134l0 402c0 75-60 134-135 134l-570 0c-75 0-135-59-135-134l0-402c0-75 60-134 135-134z m87 91l0 0c-35 21-58 39-72 56-15 17-21 34-22 49 0 30 23 55 47 79 23 24 46 47 49 71 1 12-2 25-14 40-12 15-31 31-62 49l-11 6 232 0 1 0c31-19 51-35 64-51 12-15 16-30 15-45-3-28-28-51-51-75-23-24-45-48-44-74 0-14 5-28 19-44 14-17 37-35 70-55l11-6-232 0z m2 7l205 0c-28 18-48 34-61 49-15 17-21 34-21 49-1 30 23 55 46 79 23 24 47 47 49 71 1 12-2 25-14 40-11 14-31 30-61 48l-205 0c25-16 42-30 53-44 13-15 17-30 16-45-3-28-28-51-51-75-24-24-45-48-45-74 0-14 6-28 20-44 14-16 36-34 69-54z m-30 60c-4 0-4 7 0 7l123 0c5 0 5-7 0-7l-27 0-96 0z m13 69c-5 0-5 7 0 7l111 0c5 0 5-7 0-7l-111 0z m37 69c-5 0-5 7 0 7l124 0c5 0 5-7 0-7l-124 0z m25 69c-5 0-5 7 0 7l124 0c4 0 4-7 0-7l-124 0z" /></svg>