<svg height="1000" width="1000.0" xmlns="http://www.w3.org/2000/svg"><path d="m215 105c-107 0-195 87-195 194l0 402c0 107 88 194 195 194l570 0c108 0 195-87 195-194l0-402c0-107-87-194-195-194l-570 0z m0 60l570 0c75 0 135 59 135 134l0 402c0 75-60 134-135 134l-570 0c-75 0-135-59-135-134l0-402c0-75 60-134 135-134z m139 101l-3 0c-53 0-87 38-87 86 0 25 18 47 35 63-9 3-33 12-57 25-14 8-28 17-38 28-11 10-18 22-19 36l0 0 0 127 61 0c1 0 1 0 2 0l285 0 0-127c0-12-8-23-19-33-11-11-25-20-40-28-26-15-51-25-61-29 17-16 30-37 30-62 0-48-36-86-89-86z m-24 51c8 0 17 1 25 6 36 19 75 27 82 21 1 3 1 5 1 8 0 24-14 46-31 61l-4 3 4 2c4 1 22 7 42 17-1 43-42 79-94 79-52 0-94-34-95-78 22-10 41-17 45-18l4-1-3-3c-18-16-37-38-37-62 0-3 0-6 0-8 6-6 32-27 61-27z m124 121c6 2 12 6 18 9 14 8 28 17 39 27 10 10 17 20 17 30l0 122-57 0 0-90-5 0 0 90-216 0 0-90c0-3-6-3-5 0l0 90-55 0 0-122c1-12 7-23 17-33 10-10 24-19 37-26 4-2 7-4 11-6 2 45 46 80 100 80 53 0 97-36 99-81z" /></svg>