<svg height="1000" width="1000.0" xmlns="http://www.w3.org/2000/svg"><path d="m500 48c-9 0-19 4-26 11l-415 415c-14 14-14 38 0 52l415 415c14 14 38 14 52 0l415-415c14-14 14-38 0-52l-415-415c-7-7-17-11-26-11z m0 62l390 390-390 390-390-390 390-390z m-11 161c0 0-4 1-4 1 0 0-4 3-4 3 0 0-3 4-3 4 0 0-1 4-1 4l0 194-194 0 0 0c0 0-4 1-4 1 0 0-4 3-4 3l0 0c0 0-3 4-3 4 0 0-1 4-1 4l0 21c0 0 1 5 1 5 0 0 3 4 3 4 0 0 4 3 4 3 0 0 4 1 4 1l194 0 0 194 0 0c0 0 1 4 1 4 0 0 3 4 3 4 0 0 4 3 4 3 0 0 4 1 4 1l22 0c0 0 4-1 4-1 0 0 4-3 4-3 0 0 3-4 3-4 0 0 1-4 1-4l0-194 194 0c0 0 4-1 4-1 0 0 4-3 4-3 0 0 3-4 3-4 0 0 1-4 1-4l0-22c0 0-1-4-1-4 0 0-3-4-3-4 0 0-4-3-4-3 0 0-4-1-4-1l-194 0 0-194c0 0-1-4-1-4 0 0-3-4-3-4 0 0-4-3-4-3 0 0-4-1-4-1l-22 0z" /></svg>