<svg height="1000" width="1000.0" xmlns="http://www.w3.org/2000/svg"><path d="m491 48c-219 0-420 183-440 400-22 186 82 380 253 459 158 77 361 53 492-67 134-115 192-312 133-480-55-172-220-303-401-311-13-1-25-1-37-1z m9 142c161-5 308 137 310 298 7 147-103 292-250 317-142 28-300-54-350-192-53-136 2-309 132-380 47-28 103-43 158-43z m-167 154c57 46 114 92 171 138 56-46 113-92 170-138-114 0-227 0-341 0z m-38 32c0 93 0 187 0 280 137 0 273 0 410 0 0-91 0-183 0-274-67 54-134 109-201 163-70-56-139-113-209-169z" /></svg>