<svg height="1000" width="1000.0" xmlns="http://www.w3.org/2000/svg"><path d="m499 48c-1 0-2 0-3 0-202-1-391 150-436 346-42 173 28 368 174 471 145 107 354 116 506 18 149-93 235-276 207-450-26-176-164-330-338-371-36-9-73-14-110-14z m-5 49c3 0 7 0 10 0 187-2 362 146 392 331 32 167-54 348-205 427-154 85-363 54-483-77-124-127-147-338-53-488 71-116 203-192 339-193z m8 44c-3 0-7 0-10 0-172 0-330 143-349 314-22 161 79 328 233 382 145 55 322 3 413-124 98-129 92-326-17-447-67-77-167-125-270-125z m-2 48c2 0 4 0 6 0 153 0 292 129 304 281 16 145-84 293-225 330-137 40-296-27-361-154-69-129-33-305 86-392 54-42 122-65 190-65z m-151 121l0 12 0 368 50 0 202 0 50 0 0-380-302 0z m24 24l254 0 0 332-26 0-202 0-26 0 0-332z m26 37l0 25 202 0 0-25-202 0z m0 74l0 24 202 0 0-24-202 0z m0 85l0 24 202 0 0-24-202 0z m0 77l0 24 202 0 0-24-202 0z" /></svg>