<svg height="1000" width="1000.0" xmlns="http://www.w3.org/2000/svg"><path d="m499 48c-1 0-2 0-3 0-202-1-391 150-436 346-42 173 28 368 174 471 145 107 354 116 506 18 149-93 235-276 207-450-26-176-164-330-338-371-36-9-73-14-110-14z m-5 49c3 0 7 0 10 0 187-2 362 146 392 331 32 167-54 348-205 427-154 85-363 54-483-77-124-127-147-338-53-488 71-116 203-192 339-193z m8 44c-3 0-7 0-10 0-172 0-330 143-349 314-22 161 79 328 233 382 145 55 322 3 413-124 98-129 92-326-17-447-67-77-167-125-270-125z m-2 48c2 0 4 0 6 0 153 0 292 129 304 281 16 145-84 293-225 330-137 40-296-27-361-154-69-129-33-305 86-392 54-42 122-65 190-65z m-4 97c-84 0-164 55-194 133-33 76-15 170 43 229 56 60 149 82 226 54 81-28 141-108 143-194 5-83-46-166-121-201-29-14-61-21-93-21-1 0-3 0-4 0z m8 39c76 0 148 57 166 131 20 73-14 156-79 194-67 42-160 31-215-26-58-56-68-152-24-219 32-49 89-81 148-80 1 0 2 0 4 0z m51 49c-19 36-39 71-58 107-18 2-23 29-6 36 11 8 20-5 30-4l89 0 0-25-89 0c18-34 37-68 56-102-7-4-14-8-22-12z" /></svg>