<svg height="1000" width="1000.0" xmlns="http://www.w3.org/2000/svg"><path d="m499 48c-220-4-425 177-448 396-24 185 78 380 247 461 160 80 368 56 501-66 134-118 190-318 128-486-57-167-217-293-393-303-12-1-23-2-35-2z m-5 49c202-7 391 161 407 362 19 178-92 361-262 420-166 61-368 2-468-145-103-144-99-356 18-490 74-90 188-146 305-147z m8 44c-186-6-358 158-361 344-9 169 116 334 283 367 155 33 328-46 397-190 71-140 39-327-83-430-64-57-150-91-236-91z m-2 48c164-4 314 144 311 308 3 152-119 297-272 312-143 19-295-73-336-213-43-134 14-295 138-364 48-28 103-43 159-43z m0 99c-64 115-128 230-192 345 128 0 256 0 384 0-64-115-128-230-192-345z m0 51c50 90 100 180 151 270-101 0-201 0-302 0 51-90 101-180 151-270z" /></svg>